<?xml version="1.0" encoding="utf-8"?>
<!-- Generator: Adobe Illustrator 28.0.0, SVG Export Plug-In . SVG Version: 6.00 Build 0)  -->
<svg version="1.1" id="레이어_1" xmlns="http://www.w3.org/2000/svg" xmlns:xlink="http://www.w3.org/1999/xlink" x="0px"
	 y="0px" viewBox="0 0 363 81" style="enable-background:new 0 0 363 81;" xml:space="preserve">
<style type="text/css">
	.st0{fill:#FFFFFF;}
	.st1{fill:#E60012;}
</style>
<g>
	<rect x="0" y="21.4" class="st0" width="15.4" height="60.2"/>
	<path class="st0" d="M31.2,21.4h19.1L32.5,46.2c0,0-0.2,0.5-0.2,1.1s0.3,1.1,0.3,1.2s20.9,33,20.9,33h-17l-18-30.1V39.1L31.2,21.4z
		"/>
	<path class="st0" d="M65.9,29.9"/>
	<path class="st0" d="M99.7,21.4H60.2c-2.6,0-4.7,2.1-4.7,4.6v50.9c0,2.6,2.1,4.7,4.7,4.7h39.5c2.6,0,4.7-2.1,4.7-4.7V26
		C104.4,23.5,102.3,21.4,99.7,21.4z M90,63.4c0,1.7-1.4,3-3,3H72.9c-1.7,0-3-1.4-3-3V38.8c0-1.7,1.4-3,3-3H87c1.7,0,3,1.4,3,3
		L90,63.4L90,63.4z"/>
	<path class="st0" d="M151,62.6c6.8,0,6.6-8.9,6.6-8.9s0-23,0-26.9s-3.7-5.4-5.8-5.4c-1.3,0-41,0-41,0v60.2H125V62.7h6.8l14.3,18.9
		h17C163.1,81.6,152.9,66.1,151,62.6z M145.2,46.2c0,1.2-1,2.3-2.3,2.3h-16.5c-1.2,0-2.3-1-2.3-2.3V37c0-1.2,1-2.3,2.3-2.3h16.5
		c1.2,0,2.3,1,2.3,2.3V46.2z"/>
	<g>
		<polygon class="st0" points="166.6,21.4 166.6,81.6 204.5,81.6 215.3,65.4 180.2,65.4 180.2,35.8 215.3,35.8 204.6,21.4 		"/>
		<polygon class="st0" points="185.9,44.1 185.9,58.7 196.1,58.7 206.6,44.1 		"/>
	</g>
	<path class="st1" d="M209.9,81.6l54.7-79.2c0,0,2.3-2.2,9.8-1.9C285.1,0.9,289,10.6,289,11.8s0,31.3,0,31.3h-18.8L269.9,31
		l-14.7,16.9H289v33.7h-20.6V67.7h-25.7l-9.8,13.9H209.9L209.9,81.6z"/>
	<g>
		<polygon class="st0" points="295.9,50.1 312,50.1 312,81.6 303.5,81.6 303.5,57.3 295.9,57.3 		"/>
		<polygon class="st0" points="314,50.1 324,50.1 319.2,56.9 314,56.9 		"/>
	</g>
	<path class="st0" d="M354.7,62.9l-7.2,8.9c-1.1,1.4-2.4,2.4-4.2,2.4s-3-1-4.2-2.4l-6.6-8.9"/>
	<path class="st0" d="M332.5,62.9v18.6h-8.3l0-25.8c0-2.8,3-5.6,6.2-5.6c2.6,0,4.2,1.5,5.8,3.5l7.1,10.6l7.8-10.8
		c1.5-1.8,3.1-3.3,5.6-3.3c0,0,0.1,0,0.1,0c0.9-0.1,6.2,0,6.2,5.6v25.9h-8.3V62.9"/>
</g>
</svg>
