<?xml version="1.0" encoding="utf-8"?>
<!-- Generator: Adobe Illustrator 28.0.0, SVG Export Plug-In . SVG Version: 6.00 Build 0)  -->
<svg version="1.1" id="레이어_1" xmlns="http://www.w3.org/2000/svg" xmlns:xlink="http://www.w3.org/1999/xlink" x="0px"
	 y="0px" viewBox="0 0 363 81" style="enable-background:new 0 0 363 81;" xml:space="preserve">
<style type="text/css">
	.st0{fill:#E60012;}
</style>
<g>
	<rect x="0.02" y="21.39" width="15.38" height="60.17"/>
	<path d="M31.21,21.39h19.07L32.45,46.21c0,0-0.23,0.55-0.23,1.11c0,0.56,0.28,1.09,0.35,1.2s20.94,33.04,20.94,33.04H36.53
		L18.48,51.47V39.11L31.21,21.39z"/>
	<path d="M65.86,29.87"/>
	<path d="M99.74,21.39H60.2c-2.57,0-4.65,2.08-4.65,4.65v50.88c0,2.57,2.08,4.65,4.65,4.65h39.54c2.57,0,4.65-2.08,4.65-4.65V26.03
		C104.38,23.47,102.3,21.39,99.74,21.39z M90.04,63.42c0,1.68-1.36,3.04-3.04,3.04H72.93c-1.68,0-3.04-1.36-3.04-3.04V38.79
		c0-1.68,1.36-3.04,3.04-3.04h14.08c1.68,0,3.04,1.36,3.04,3.04V63.42z"/>
	<path d="M150.96,62.59c6.77,0,6.61-8.86,6.61-8.86s0-23.05,0-26.92c0-3.87-3.67-5.43-5.76-5.43c-1.33,0-40.98,0-40.98,0v60.17
		h14.18V62.65h6.77l14.29,18.91h17.03C163.1,81.56,152.9,66.14,150.96,62.59z M145.16,46.23c0,1.25-1.01,2.26-2.26,2.26h-16.52
		c-1.25,0-2.26-1.01-2.26-2.26v-9.27c0-1.25,1.01-2.26,2.26-2.26h16.52c1.25,0,2.26,1.01,2.26,2.26V46.23z"/>
	<g>
		<polygon points="166.65,21.39 166.65,81.56 204.47,81.56 215.32,65.44 180.19,65.44 180.19,35.76 215.32,35.76 204.58,21.39 		"/>
		<polygon points="185.88,44.06 185.88,58.67 196.09,58.67 206.62,44.06 		"/>
	</g>
	<path class="st0" d="M209.95,81.56l54.71-79.24c0,0,2.27-2.19,9.77-1.89c10.64,0.43,14.61,10.2,14.61,11.39s0,31.27,0,31.27h-18.8
		l-0.32-12.14l-14.72,16.87h33.85v33.74H268.4V67.7h-25.68l-9.78,13.86L209.95,81.56L209.95,81.56z"/>
	<g>
		<polygon points="295.91,50.13 311.97,50.13 311.97,81.56 303.54,81.56 303.54,57.33 295.91,57.33 		"/>
		<polygon points="313.96,50.13 323.95,50.13 319.17,56.9 313.96,56.9 		"/>
	</g>
	<path d="M354.74,62.91l-7.23,8.88c-1.12,1.4-2.4,2.42-4.19,2.42c-1.79,0-2.99-1.04-4.19-2.42l-6.6-8.86"/>
	<path d="M332.53,62.94v18.62h-8.31l0.05-25.85c0-2.82,3-5.59,6.18-5.59c2.62,0,4.25,1.49,5.78,3.49l7.09,10.59l7.81-10.79
		c1.51-1.85,3.13-3.27,5.63-3.28c0.03,0,0.06,0.01,0.1,0c0.88-0.07,6.18,0,6.18,5.57v25.86h-8.31V62.91"/>
</g>
</svg>
