<?xml version="1.0" encoding="utf-8"?>
<!-- Generator: Adobe Illustrator 27.7.0, SVG Export Plug-In . SVG Version: 6.00 Build 0)  -->
<svg version="1.1" id="레이어_1" xmlns="http://www.w3.org/2000/svg" xmlns:xlink="http://www.w3.org/1999/xlink" x="0px"
	 y="0px" viewBox="0 0 464.3 196.8" style="enable-background:new 0 0 464.3 196.8;" xml:space="preserve">
<style type="text/css">
	.st0{fill:#333333;}
	.st1{fill:#F7532E;}
</style>
<g>
	<path class="st0" d="M45.9,124.2c-6.7,0-12.7-1.3-17.9-3.9c-5.2-2.6-9.3-6.3-12.2-11c-2.9-4.8-4.4-10.3-4.4-16.6s1.5-11.9,4.4-16.6
		c2.9-4.8,7-8.4,12.2-11c5.2-2.6,11.2-3.9,17.9-3.9c6.7,0,12.7,1.3,17.9,3.9c5.2,2.6,9.2,6.3,12.2,11.1c2.9,4.8,4.4,10.3,4.4,16.6
		c0,6.2-1.5,11.8-4.4,16.6c-2.9,4.8-7,8.5-12.2,11.1C58.6,122.9,52.6,124.2,45.9,124.2z M50.8,176.8h67.1v15h-74
		c-8.2,0-12.2-4.1-12.2-12.2v-25.2h64.5v-8.8H31v-14.7h84.2V168H50.8V176.8z M45.9,108.8c4.4,0,7.9-1.2,10.4-3.5
		c2.5-2.4,3.8-5.6,3.8-9.9v-5.5c0-4.2-1.3-7.5-3.8-9.9c-2.5-2.4-6-3.5-10.4-3.5c-4.4,0-7.9,1.2-10.5,3.5c-2.6,2.4-3.9,5.6-3.9,9.9
		v5.5c0,4.2,1.3,7.5,3.9,9.9C38,107.6,41.5,108.8,45.9,108.8z M134.3,84.3v16.1h-19v23.8H96V57.8h19.3v26.5H134.3z"/>
	<path class="st0" d="M221.7,66.5h18.7v86.1h-63.2V66.5h18.7v28.2h25.8V66.5z M221.7,110.5h-25.8v26.2h25.8V110.5z M296.6,120.3
		h-19.2v65.4h-19.3V57.8h19.3v46.4h19.2V120.3z"/>
	<path class="st0" d="M455.6,112.8V128H336.6v-15.1h50v-8.1h-33V60.7h85v44.1h-32.8v8.1H455.6z M372.6,177.8h69.3V192h-75.5
		c-8.2,0-12.2-4.1-12.2-12.2V157H420v-7.6h-66.4v-14h85V170h-66V177.8z M372.6,90.2h46.9v-15h-46.9V90.2z"/>
</g>
<g>
	<g>
		<path class="st1" d="M84,31H65V11.1h19V31z M80.5,14.1H68.5v14h12.1V14.1z M98.6,46.9v2.9H74.1c-0.8,0-1.3-0.2-1.7-0.6
			c-0.4-0.4-0.6-1-0.6-1.8V35.9h3.6v11.1H98.6z M94.2,27.2h-8.6v-2.9h8.6V18h-8.6v-2.9h8.6V8.6h3.6v30.6h-3.6V27.2z"/>
		<path class="st1" d="M108.1,31l-2.6-2.2c2.6-2.1,4.6-3.8,6-5.3c1.4-1.5,2.5-2.9,3.1-4.4c0.6-1.5,1-3.1,1-4.9v-0.4h-9v-2.9h21.3
			v2.9h-8.8v0.5c0,2.6-0.5,4.9-1.6,6.9l0.3,0.2l0.7-0.5c0.4-0.3,0.7-0.4,1.1-0.4c0.4,0,0.8,0.2,1.1,0.4l8.7,7.2l-2.6,2.3l-8.8-7.5
			c-0.2-0.2-0.5-0.3-0.7-0.3c-0.2,0-0.5,0.1-0.6,0.3c-0.9,1.2-1.9,2.4-3.2,3.6C111.9,27.7,110.2,29.2,108.1,31z M135.8,33.6h3.5
			v17.1H116c-0.8,0-1.3-0.2-1.7-0.6c-0.4-0.4-0.6-1-0.6-1.8V33.6h3.5v5.6h18.6V33.6z M135.8,41.9h-18.6v6h18.6V41.9z M139.3,8.5
			v22.6h-3.6V21h-8.5v-2.9h8.5V8.5H139.3z"/>
		<path class="st1" d="M184,41.4v3h-38v-3h17.2v-9.5h-12V10.7h3.6v7.7h20.5v-7.7h3.5v21.2h-11.9v9.5H184z M154.7,28.9h20.5v-7.7
			h-20.5V28.9z"/>
		<path class="st1" d="M225.5,41.4v3h-38v-3h14.9V26.5h3.5v14.9H225.5z M216.9,14.9h-24.6v-3h28.1v3.3c0,6.9-0.7,13.5-2,19.7
			l-3.5-0.5c1.3-6.3,1.9-12.7,1.9-19L216.9,14.9L216.9,14.9z"/>
		<path class="st1" d="M252.4,23.1c-0.2,0-0.4,0.1-0.5,0.3c-0.8,1.4-1.9,2.9-3.2,4.4c-1.3,1.5-3.1,3.4-5.3,5.6l-2.6-2.3
			c2.6-2.5,4.6-4.6,6-6.4c1.4-1.8,2.4-3.6,3-5.3c0.6-1.8,0.9-3.8,0.9-6v-2.9h3.6v3.1c0,3.1-0.5,5.9-1.6,8.2l0.2,0.2l0.8-0.6
			c0.3-0.3,0.7-0.4,1-0.4s0.7,0.2,1,0.5l8.8,8.9l-2.6,2.4l-9-9.3C252.8,23.2,252.6,23.1,252.4,23.1z M275.9,46.9v2.9h-24.4
			c-0.8,0-1.3-0.2-1.7-0.6c-0.4-0.4-0.6-1-0.6-1.8V36h3.6v11H275.9z M271.5,21.4h-8.9v-3h8.9V8.5h3.6v30.7h-3.6V21.4z"/>
		<path class="st1" d="M302.5,29.5v4.3H314v10.1h-23v4.3h24.2V51h-25.3c-0.8,0-1.3-0.2-1.7-0.6s-0.6-1-0.6-1.8V41h23v-4.4h-23.3
			v-2.9H299v-4.3h-17.3v-2.9h38v2.9L302.5,29.5L302.5,29.5z M314,22.7h-26.7V9.2H314V22.7z M310.5,12h-19.6v7.9h19.6V12z"/>
		<path class="st1" d="M343.5,29.7h-18.9V10.4h3.4V17h12v-6.7h3.5L343.5,29.7L343.5,29.7z M340.1,19.9h-12v7h12V19.9z M334.6,47.6
			h22v3h-23.3c-0.8,0-1.3-0.2-1.7-0.6c-0.4-0.4-0.6-1-0.6-1.8V34.9h25.2v3h-21.7V47.6z M362.6,18.8v3h-6.5v10.4h-3.6V8.6h3.6v10.3
			L362.6,18.8L362.6,18.8z"/>
		<path class="st1" d="M378.8,25.6c0.4,0,0.7,0.2,1.1,0.5l9,10.7l-2.6,2.3l-9.1-11.1c-0.2-0.2-0.4-0.3-0.6-0.3s-0.4,0.1-0.5,0.3
			c-0.9,1.7-1.9,3.4-3.2,5.2c-1.3,1.8-3.2,3.9-5.5,6.6l-2.6-2.2c2.7-2.9,4.8-5.3,6.2-7.4c1.5-2.1,2.5-4.2,3.2-6.2c0.6-2.1,1-4.4,1-7
			v-1.8H366v-3.1h21.7v3h-9.1V17c0,3.5-0.5,6.6-1.7,9.4l0.2,0.2l0.8-0.5C378.1,25.8,378.4,25.6,378.8,25.6z M404,27.5h-6.7v21.7
			h-3.6V8.7h3.6v15.9h6.7V27.5z"/>
	</g>
</g>
</svg>
