<?xml version="1.0" encoding="utf-8"?>
<!-- Generator: Adobe Illustrator 27.7.0, SVG Export Plug-In . SVG Version: 6.00 Build 0)  -->
<svg version="1.1" id="레이어_1" xmlns="http://www.w3.org/2000/svg" xmlns:xlink="http://www.w3.org/1999/xlink" x="0px"
	 y="0px" viewBox="0 0 464.3 196.8" style="enable-background:new 0 0 464.3 196.8;" xml:space="preserve">
<style type="text/css">
	.st0{fill:#333333;}
	.st1{fill:#F7532E;}
</style>
<g>
	<g>
		<path class="st0" d="M34.5,126.7c-6.1,0-11.5-1.2-16.3-3.5c-4.7-2.4-8.5-5.7-11.1-10c-2.7-4.3-4-9.3-4-15.1c0-5.8,1.3-10.8,4-15.1
			c2.7-4.3,6.4-7.6,11.1-10c4.7-2.4,10.2-3.5,16.3-3.5S46,70.7,50.7,73c4.7,2.4,8.4,5.7,11,10.1c2.7,4.4,4,9.4,4,15
			c0,5.7-1.3,10.7-4,15c-2.7,4.4-6.3,7.7-11,10.1C46,125.5,40.6,126.7,34.5,126.7z M38.9,174.4h60.9V188H32.6
			c-7.4,0-11.1-3.7-11.1-11.1V154H80v-8H21v-13.3h76.5v33.7H38.9V174.4z M34.5,112.7c4,0,7.2-1.1,9.5-3.2s3.5-5.1,3.5-9v-5
			c0-3.8-1.2-6.8-3.5-9c-2.3-2.1-5.5-3.2-9.5-3.2s-7.2,1.1-9.5,3.2c-2.4,2.1-3.5,5.1-3.5,9v5c0,3.8,1.2,6.8,3.5,9
			C27.3,111.7,30.5,112.7,34.5,112.7z M114.7,90.5v14.6H97.5v21.6H79.9V66.5h17.5v24H114.7z"/>
		<path class="st0" d="M163.2,74.3h17v78.2h-57.4V74.3h17v25.6h23.4V74.3z M163.2,114.3h-23.4v23.8h23.4V114.3z M231.2,123.2h-17.4
			v59.3h-17.5v-116h17.5v42.1h17.4V123.2z"/>
		<path class="st0" d="M272.3,114.4c-0.6,0-1.1,0.3-1.6,0.8c-4.6,7.5-12.2,16-22.6,25.6L235,129.4c9.8-8.5,16.7-16.4,20.9-23.6
			c4.2-7.2,6.3-15,6.3-23.6v-10h17.6V83c0,9.2-1.7,17.6-5.2,25.1l0.8,0.4l3.5-2.9c1.6-1.3,3.1-2,4.6-2s2.9,0.7,4.2,2l20.4,21
			l-12.9,12l-21.3-23.5C273.4,114.7,272.8,114.4,272.3,114.4z M339.4,170.5v14.4H272c-7.4,0-11.1-3.7-11.1-11.1v-29.7h17.6v26.4
			H339.4z M319.6,106.4h-20.9V91.8h20.9V66.5h17.5v86.8h-17.5V106.4z"/>
		<path class="st0" d="M415.9,129.6v7.3h29.8v31.4h-59.9v7.1h62.9v12.9h-68.5c-7.4,0-11.1-3.7-11.1-11.1v-20.7h59.7v-6.9h-60.2
			v-12.7h29.9v-7.3h-45.3v-13.7h108v13.7H415.9z M445.7,109.1h-77.1v-40h77.1V109.1z M428.5,82.3h-42.6v13.6h42.6V82.3z"/>
	</g>
	<g>
		<path class="st1" d="M84,31H65V11.1h19V31z M80.5,14.1H68.5v14h12.1V14.1z M98.6,46.9v2.9H74.1c-0.8,0-1.3-0.2-1.7-0.6
			c-0.4-0.4-0.6-1-0.6-1.8V35.9h3.6v11.1H98.6z M94.2,27.2h-8.6v-2.9h8.6V18h-8.6v-2.9h8.6V8.6h3.6v30.6h-3.6V27.2z"/>
		<path class="st1" d="M108.1,31l-2.6-2.2c2.6-2.1,4.6-3.8,6-5.3c1.4-1.5,2.5-2.9,3.1-4.4c0.6-1.5,1-3.1,1-4.9v-0.4h-9v-2.9h21.3
			v2.9h-8.8v0.5c0,2.6-0.5,4.9-1.6,6.9l0.3,0.2l0.7-0.5c0.4-0.3,0.7-0.4,1.1-0.4c0.4,0,0.8,0.2,1.1,0.4l8.7,7.2l-2.6,2.3l-8.8-7.5
			c-0.2-0.2-0.5-0.3-0.7-0.3c-0.2,0-0.5,0.1-0.6,0.3c-0.9,1.2-1.9,2.4-3.2,3.6C111.9,27.7,110.2,29.2,108.1,31z M135.8,33.6h3.5
			v17.1H116c-0.8,0-1.3-0.2-1.7-0.6c-0.4-0.4-0.6-1-0.6-1.8V33.6h3.5v5.6h18.6V33.6z M135.8,41.9h-18.6v6h18.6V41.9z M139.3,8.5
			v22.6h-3.6V21h-8.5v-2.9h8.5V8.5H139.3z"/>
		<path class="st1" d="M184,41.4v3h-38v-3h17.2v-9.5h-12V10.7h3.6v7.7h20.5v-7.7h3.5v21.2h-11.9v9.5H184z M154.7,28.9h20.5v-7.7
			h-20.5V28.9z"/>
		<path class="st1" d="M225.5,41.4v3h-38v-3h14.9V26.5h3.5v14.9H225.5z M216.9,14.9h-24.6v-3h28.1v3.3c0,6.9-0.7,13.5-2,19.7
			l-3.5-0.5c1.3-6.3,1.9-12.7,1.9-19L216.9,14.9L216.9,14.9z"/>
		<path class="st1" d="M252.4,23.1c-0.2,0-0.4,0.1-0.5,0.3c-0.8,1.4-1.9,2.9-3.2,4.4c-1.3,1.5-3.1,3.4-5.3,5.6l-2.6-2.3
			c2.6-2.5,4.6-4.6,6-6.4c1.4-1.8,2.4-3.6,3-5.3c0.6-1.8,0.9-3.8,0.9-6v-2.9h3.6v3.1c0,3.1-0.5,5.9-1.6,8.2l0.2,0.2l0.8-0.6
			c0.3-0.3,0.7-0.4,1-0.4s0.7,0.2,1,0.5l8.8,8.9l-2.6,2.4l-9-9.3C252.8,23.2,252.6,23.1,252.4,23.1z M275.9,46.9v2.9h-24.4
			c-0.8,0-1.3-0.2-1.7-0.6c-0.4-0.4-0.6-1-0.6-1.8V36h3.6v11H275.9z M271.5,21.4h-8.9v-3h8.9V8.5h3.6v30.7h-3.6V21.4z"/>
		<path class="st1" d="M302.5,29.5v4.3H314v10.1h-23v4.3h24.2V51h-25.3c-0.8,0-1.3-0.2-1.7-0.6s-0.6-1-0.6-1.8V41h23v-4.4h-23.3
			v-2.9H299v-4.3h-17.3v-2.9h38v2.9L302.5,29.5L302.5,29.5z M314,22.7h-26.7V9.2H314V22.7z M310.5,12h-19.6v7.9h19.6V12z"/>
		<path class="st1" d="M343.5,29.7h-18.9V10.4h3.4V17h12v-6.7h3.5L343.5,29.7L343.5,29.7z M340.1,19.9h-12v7h12V19.9z M334.6,47.6
			h22v3h-23.3c-0.8,0-1.3-0.2-1.7-0.6c-0.4-0.4-0.6-1-0.6-1.8V34.9h25.2v3h-21.7V47.6z M362.6,18.8v3h-6.5v10.4h-3.6V8.6h3.6v10.3
			L362.6,18.8L362.6,18.8z"/>
		<path class="st1" d="M378.8,25.6c0.4,0,0.7,0.2,1.1,0.5l9,10.7l-2.6,2.3l-9.1-11.1c-0.2-0.2-0.4-0.3-0.6-0.3s-0.4,0.1-0.5,0.3
			c-0.9,1.7-1.9,3.4-3.2,5.2c-1.3,1.8-3.2,3.9-5.5,6.6l-2.6-2.2c2.7-2.9,4.8-5.3,6.2-7.4c1.5-2.1,2.5-4.2,3.2-6.2c0.6-2.1,1-4.4,1-7
			v-1.8H366v-3.1h21.7v3h-9.1V17c0,3.5-0.5,6.6-1.7,9.4l0.2,0.2l0.8-0.5C378.1,25.8,378.4,25.6,378.8,25.6z M404,27.5h-6.7v21.7
			h-3.6V8.7h3.6v15.9h6.7V27.5z"/>
	</g>
</g>
</svg>
